HIERARCHY
ROOT Hips
{
	OFFSET 0.000000 0.000000 0.000000
	CHANNELS 6 Xposition Yposition Zposition Xrotation Yrotation Zrotation
	JOINT LeftUpLeg_virtual
	{
		OFFSET 0.000000 0.000000 0.000000
		CHANNELS 3 Xrotation Yrotation Zrotation
		JOINT LeftUpLeg
		{
			OFFSET 15.427100 -6.655098 0.678600
			CHANNELS 3 Xrotation Yrotation Zrotation
			JOINT LeftLeg
			{
				OFFSET 4.081073 -39.591068 13.024000
				CHANNELS 3 Xrotation Yrotation Zrotation
				JOINT LeftFoot
				{
					OFFSET -4.081074 -37.707932 -15.979700
					CHANNELS 3 Xrotation Yrotation Zrotation
					JOINT LeftToeBase
					{
						OFFSET 5.346399 -15.068900 20.645000
						CHANNELS 3 Xrotation Yrotation Zrotation
						JOINT LeftToe_End
						{
							OFFSET 2.754700 0.931300 11.300900
							CHANNELS 3 Xrotation Yrotation Zrotation
							End Site
							{
								OFFSET 0 0 0
							}
						}
					}
				}
			}
		}
	}
	JOINT RightUpLeg_virtual
	{
		OFFSET 0.000000 0.000000 0.000000
		CHANNELS 3 Xrotation Yrotation Zrotation
		JOINT RightUpLeg
		{
			OFFSET -15.569500 -6.655098 0.678600
			CHANNELS 3 Xrotation Yrotation Zrotation
			JOINT RightLeg
			{
				OFFSET -4.081825 -39.591045 13.023800
				CHANNELS 3 Xrotation Yrotation Zrotation
				JOINT RightFoot
				{
					OFFSET 4.081824 -37.707954 -15.979600
					CHANNELS 3 Xrotation Yrotation Zrotation
					JOINT RightToeBase
					{
						OFFSET -5.346400 -15.068900 20.645000
						CHANNELS 3 Xrotation Yrotation Zrotation
						JOINT RightToe_End
						{
							OFFSET -2.754700 0.931300 11.300900
							CHANNELS 3 Xrotation Yrotation Zrotation
							End Site
							{
								OFFSET 0 0 0
							}
						}
					}
				}
			}
		}
	}
	JOINT Spine_virtual
	{
		OFFSET 0.000000 0.000000 0.000000
		CHANNELS 3 Xrotation Yrotation Zrotation
		JOINT Spine
		{
			OFFSET -0.279200 12.230698 -2.892100
			CHANNELS 3 Xrotation Yrotation Zrotation
			JOINT Spine1
			{
				OFFSET -0.232667 10.192268 -1.242267
				CHANNELS 3 Xrotation Yrotation Zrotation
				JOINT Spine1_split
				{
					OFFSET -0.232667 10.192268 -1.242267
					CHANNELS 3 Xrotation Yrotation Zrotation
					JOINT Spine2
					{
						OFFSET -0.232667 10.192268 -1.242267
						CHANNELS 3 Xrotation Yrotation Zrotation
						JOINT Neck_virtual
						{
							OFFSET 0.000000 0.000000 0.000000
							CHANNELS 3 Xrotation Yrotation Zrotation
							JOINT Neck
							{
								OFFSET -0.418800 17.814194 8.416900
								CHANNELS 3 Xrotation Yrotation Zrotation
								JOINT Head
								{
									OFFSET 0.000000 7.031097 3.806800
									CHANNELS 3 Xrotation Yrotation Zrotation
									JOINT HeadTop_End
									{
										OFFSET 0.000000 24.646606 12.978600
										CHANNELS 3 Xrotation Yrotation Zrotation
										End Site
										{
											OFFSET 0 0 0
										}
									}
								}
							}
						}
						JOINT LeftShoulder_virtual
						{
							OFFSET 0.000000 0.000000 0.000000
							CHANNELS 3 Xrotation Yrotation Zrotation
							JOINT LeftShoulder
							{
								OFFSET 8.476499 7.247704 -3.868750
								CHANNELS 3 Xrotation Yrotation Zrotation
								JOINT LeftShoulder_split
								{
									OFFSET 8.476499 7.247704 -3.868750
									CHANNELS 3 Xrotation Yrotation Zrotation
									JOINT LeftArm
									{
										OFFSET 9.308998 -2.777710 0.208600
										CHANNELS 3 Xrotation Yrotation Zrotation
										JOINT LeftForeArm
										{
											OFFSET 29.972298 0.000000 0.000000
											CHANNELS 3 Xrotation Yrotation Zrotation
											JOINT LeftHand
											{
												OFFSET 26.026505 0.000000 0.000000
												CHANNELS 3 Xrotation Yrotation Zrotation
												End Site
												{
													OFFSET 0 0 0
												}
											}
										}
									}
								}
							}
						}
						JOINT RightShoulder_virtual
						{
							OFFSET 0.000000 0.000000 0.000000
							CHANNELS 3 Xrotation Yrotation Zrotation
							JOINT RightShoulder
							{
								OFFSET -7.570500 7.247704 -3.868750
								CHANNELS 3 Xrotation Yrotation Zrotation
								JOINT RightShoulder_split
								{
									OFFSET -7.570500 7.247704 -3.868750
									CHANNELS 3 Xrotation Yrotation Zrotation
									JOINT RightArm
									{
										OFFSET -9.308998 -2.777710 0.208500
										CHANNELS 3 Xrotation Yrotation Zrotation
										JOINT RightForeArm
										{
											OFFSET -29.972300 0.000000 0.000000
											CHANNELS 3 Xrotation Yrotation Zrotation
											JOINT RightHand
											{
												OFFSET -26.026505 0.000000 0.000000
												CHANNELS 3 Xrotation Yrotation Zrotation
												End Site
												{
													OFFSET 0 0 0
												}
											}
										}
									}
								}
							}
						}
					}
				}
			}
		}
	}
}
MOTION
Frames: 7
Frame Time: 0.03333333
0.356120 75.137817 -1.207672 0.000000 0.000000 0.000000 -15.875021 4.121597 0.443839 -15.859718 -1.454144 16.627710 52.344497 0.492013 -0.554339 -26.084824 0.801152 -13.853719 -0.751059 -0.285595 0.597513 0.000000 0.000000 0.000000 -16.353698 2.349697 0.284504 -11.895332 -4.559901 -20.567189 52.329754 3.450750 3.109191 -28.633919 -6.103889 12.424249 2.819557 0.688636 0.046339 0.000000 0.000000 0.000000 -15.196915 1.275983 -0.149370 18.788290 0.209615 2.768750 5.817539 -0.032144 -0.202594 2.171600 5.459510 -0.378627 0.000000 0.000000 0.000000 6.008538 -0.167212 0.415038 -11.056657 -1.328533 2.625268 -17.334453 2.040805 -0.831832 0.000000 0.000000 0.000000 7.870236 -0.210367 0.719685 3.591570 -7.836165 -4.675274 -4.940511 -1.086214 -4.218781 -10.541742 -17.533837 -58.388576 70.493781 -61.704749 70.901243 0.000000 0.000000 0.000000 7.509146 -0.083015 -0.100339 10.089051 -5.641949 16.105642 3.699903 2.783027 -0.996712 -27.637153 11.812374 60.424450 89.865537 61.336144 -84.543836 0.000000 0.000000 0.000000 
0.242151 75.117966 -0.999577 0.000000 0.000000 0.000000 -15.976731 4.198541 0.365390 -15.782559 -1.711774 16.766584 52.279279 0.392573 -0.575167 -26.207895 0.774170 -13.830751 -0.621486 -0.272423 0.613592 0.000000 0.000000 0.000000 -16.447278 2.787831 0.279219 -11.607922 -4.535543 -20.478703 52.472939 3.480311 3.122698 -28.877869 -6.058909 12.212908 3.138208 0.717099 0.022335 0.000000 0.000000 0.000000 -15.360172 1.627824 -0.211341 18.728864 0.122138 2.726696 6.003680 -0.009946 -0.134040 2.034068 5.548908 -0.136607 0.000000 0.000000 0.000000 6.104359 -0.192389 0.460619 -11.328239 -1.089979 2.192083 -17.495769 2.274333 -0.872294 0.000000 0.000000 0.000000 7.920058 -0.154112 0.794436 3.683124 -7.799291 -4.306544 -4.597994 -1.169103 -4.395441 -12.540479 -17.880819 -60.020738 68.078838 -61.287622 68.616640 0.000000 0.000000 0.000000 7.621628 -0.089467 -0.058666 9.912029 -5.930145 16.149846 3.788393 2.064833 0.624196 -27.180253 10.516189 60.778698 87.561482 62.451124 -82.614656 0.000000 0.000000 0.000000 
0.118698 75.150200 -0.786934 0.000000 0.000000 0.000000 -16.284289 4.353643 0.333552 -15.578671 -2.016449 16.724070 52.271349 0.279385 -0.525469 -26.466228 0.800278 -13.873684 -0.449557 -0.220683 0.538099 0.000000 0.000000 0.000000 -16.667345 3.235206 0.270345 -11.024515 -4.743885 -20.457603 52.500331 3.633352 3.102839 -29.032897 -6.057974 12.255592 3.073137 0.708778 -0.002358 0.000000 0.000000 0.000000 -15.753444 2.171442 -0.273801 18.860165 -0.076106 2.531171 6.361781 0.085628 -0.005103 1.842909 4.814689 0.033459 0.000000 0.000000 0.000000 6.398853 -0.106413 0.464725 -11.209592 -0.828310 1.325491 -18.033885 2.399688 -0.859577 0.000000 0.000000 0.000000 8.057570 -0.034436 0.875735 3.510507 -8.503309 -3.997572 -4.395444 -1.937121 -3.590355 -12.823053 -17.086953 -60.114455 61.702986 -61.989151 62.550784 0.000000 0.000000 0.000000 7.947045 0.017939 0.063780 9.478842 -6.027847 16.247562 2.366780 1.571641 1.066817 -25.145633 11.274430 59.717806 83.698443 65.811017 -79.765476 0.000000 0.000000 0.000000 
0.035088 75.268997 -0.617954 0.000000 0.000000 0.000000 -16.746577 4.535626 0.371664 -15.175710 -2.247730 16.421721 52.250879 0.213394 -0.388985 -26.775480 0.875539 -13.884003 -0.319622 -0.148495 0.402691 0.000000 0.000000 0.000000 -16.976150 3.583118 0.287605 -10.167715 -5.174168 -20.515668 52.360117 3.826362 3.087566 -29.189845 -6.132258 12.366066 2.797133 0.667985 -0.002890 0.000000 0.000000 0.000000 -16.286847 2.653569 -0.280252 19.116362 -0.373785 2.235081 6.806842 0.210407 0.115463 1.420528 3.512534 0.650019 0.000000 0.000000 0.000000 6.836951 0.005613 0.429503 -10.516435 -0.544924 0.197050 -18.671890 2.506255 -0.914975 0.000000 0.000000 0.000000 8.245490 0.074634 0.927599 3.141080 -9.749367 -3.564795 -4.300423 -3.281470 -2.387131 -11.176736 -15.636077 -58.083007 53.447381 -63.966532 54.617092 0.000000 0.000000 0.000000 8.375402 0.141569 0.205235 8.910201 -5.913537 16.095561 0.026763 1.241565 0.753136 -20.917924 13.554645 56.524419 80.482414 71.146693 -77.749799 0.000000 0.000000 0.000000 
0.014205 75.551941 -0.446053 0.000000 0.000000 0.000000 -17.312228 4.661985 0.509931 -14.498475 -2.330464 15.863360 52.018232 0.230855 -0.197621 -27.012551 0.971347 -13.764715 -0.299236 -0.081604 0.262659 0.000000 0.000000 0.000000 -17.354206 3.848713 0.385773 -9.129268 -5.789854 -20.603184 51.927258 3.901154 3.115588 -29.317351 -6.303527 12.288885 2.655438 0.615813 0.030218 0.000000 0.000000 0.000000 -16.940387 2.944003 -0.199463 19.369129 -0.780171 1.894370 7.223370 0.274658 0.186317 0.642996 2.271581 1.174661 0.000000 0.000000 0.000000 7.396414 0.023927 0.357869 -8.914770 -0.207922 -0.953305 -19.137446 2.597073 -1.065342 0.000000 0.000000 0.000000 8.457116 0.077367 0.946714 2.684925 -11.215047 -2.817950 -4.389952 -4.040454 -1.773500 -8.012861 -14.188337 -53.696908 44.198233 -67.302171 45.751428 0.000000 0.000000 0.000000 8.836318 0.142459 0.324022 8.279912 -5.661134 15.457556 -1.739676 1.235069 0.051588 -14.288863 16.020593 50.919019 77.701352 77.741678 -75.850064 0.000000 0.000000 0.000000 
0.056005 76.085739 -0.352146 0.000000 0.000000 0.000000 -17.844064 4.711664 0.742732 -13.549378 -2.304662 15.133128 51.451996 0.302524 0.032174 -27.015983 1.025620 -13.546093 -0.400826 -0.040577 0.156343 0.000000 0.000000 0.000000 -17.710250 4.052785 0.581174 -8.052317 -6.470927 -20.667449 51.121073 3.827188 3.211477 -29.325103 -6.526753 12.022632 2.725870 0.579855 0.088965 0.000000 0.000000 0.000000 -17.607516 3.000208 -0.009478 19.487327 -1.262757 1.570945 7.530030 0.181236 0.199429 -0.241696 1.510733 1.079278 0.000000 0.000000 0.000000 8.026862 -0.100722 0.282364 -6.117876 0.119207 -1.875905 -19.218805 2.629411 -1.355048 0.000000 0.000000 0.000000 8.649196 -0.086140 0.943208 2.299606 -12.628812 -1.659579 -4.149020 -4.193462 -1.831134 -3.975288 -12.883034 -46.902656 33.474836 -71.758917 35.440287 0.000000 0.000000 0.000000 9.212634 -0.039919 0.410201 7.615401 -5.172386 14.114056 -2.848191 1.435637 -0.393147 -6.237969 16.787176 43.201435 66.053646 84.380294 -64.513643 0.000000 0.000000 0.000000 
0.141178 76.821877 -0.366978 0.000000 0.000000 0.000000 -18.310515 4.684895 1.019672 -12.466580 -2.217085 14.418953 50.529490 0.373338 0.267308 -26.664241 1.015308 -13.332676 -0.557023 -0.034596 0.098790 0.000000 0.000000 0.000000 -17.992634 4.265147 0.862294 -7.008925 -7.093462 -20.729766 49.924124 3.676626 3.333184 -29.103877 -6.714605 11.797700 2.771563 0.585180 0.127119 0.000000 0.000000 0.000000 -18.242172 2.986131 0.263753 19.423584 -1.799656 1.272026 7.790707 -0.082065 0.153867 -0.721686 1.578354 0.808166 0.000000 0.000000 0.000000 8.629185 -0.400300 0.254047 -2.009890 0.377191 -2.425232 -18.868083 2.620239 -1.693271 0.000000 0.000000 0.000000 8.857424 -0.396523 0.897176 2.159222 -13.825807 -0.018917 -3.615879 -4.545716 -2.240460 0.918420 -11.244885 -37.998542 19.599146 -76.142539 21.801284 0.000000 0.000000 0.000000 9.385891 -0.395015 0.498890 6.920486 -4.311267 12.219088 -3.441867 1.772664 -0.406927 0.619368 15.036238 34.842257 -23.628840 86.738895 25.257481 0.000000 0.000000 0.000000 
